<?xml version="1.0" encoding="UTF-8" standalone="no"?>
<svg width="11px" height="19px" viewBox="0 0 11 19" version="1.1" xmlns="http://www.w3.org/2000/svg" xmlns:xlink="http://www.w3.org/1999/xlink">
    <!-- Generator: Sketch 50.2 (55047) - http://www.bohemiancoding.com/sketch -->
    <title>facebook 1</title>
    <desc>Created with Sketch.</desc>
    <defs>
        <path d="M10.2143417,0.00395326821 L7.6685173,0 C4.80837091,0 2.96001868,1.83530477 2.96001868,4.67592564 L2.96001868,6.83184045 L0.40030612,6.83184045 C0.179116565,6.83184045 0,7.00538893 0,7.2194584 L0,10.3431333 C0,10.5572028 0.179320803,10.7305536 0.40030612,10.7305536 L2.96001868,10.7305536 L2.96001868,18.6125797 C2.96001868,18.8266492 3.13913524,19 3.3603248,19 L6.70002157,19 C6.92121113,19 7.10032769,18.8264515 7.10032769,18.6125797 L7.10032769,10.7305536 L10.0932287,10.7305536 C10.3144182,10.7305536 10.4935348,10.5572028 10.4935348,10.3431333 L10.4947602,7.2194584 C10.4947602,7.11667343 10.452483,7.01823705 10.3775277,6.94549692 C10.3025724,6.87275678 10.2004535,6.83184045 10.0942498,6.83184045 L7.10032769,6.83184045 L7.10032769,5.00424456 C7.10032769,4.12582837 7.31661554,3.67989971 8.49894826,3.67989971 L10.2139332,3.67930672 C10.4349185,3.67930672 10.6140351,3.50575825 10.6140351,3.29188644 L10.6140351,0.391373553 C10.6140351,0.177699406 10.4351228,0.00434859503 10.2143417,0.00395326821 Z" id="path-1"></path>
    </defs>
    <g id="landing_page_v2" stroke="none" stroke-width="1" fill="none" fill-rule="evenodd">
        <g id="01landing_page_venmaca_home_v2" transform="translate(-1482.000000, -1093.000000)">
            <g id="footer_bar" transform="translate(0.000000, 1073.000000)">
                <g id="redes_sociales" transform="translate(1482.000000, 20.000000)">
                    <g id="facebook">
                        <g id="color/@azul/dark-1">
                            <g>
                                <mask id="mask-2" fill="white">
                                    <use xlink:href="#path-1"></use>
                                </mask>
                                <use id="Mask" fill="#FFFFFF" fill-rule="nonzero" xlink:href="#path-1"></use>
                                <g id="color/@blanco" mask="url(#mask-2)" fill="#FFFFFF">
                                    <g transform="translate(-9.081527, -5.588235)">
                                        <rect x="0" y="0" width="27" height="26"></rect>
                                    </g>
                                </g>
                            </g>
                        </g>
                    </g>
                </g>
            </g>
        </g>
    </g>
</svg>