<?xml version="1.0" encoding="UTF-8" standalone="no"?>
<svg width="19px" height="34px" viewBox="0 0 19 34" version="1.1" xmlns="http://www.w3.org/2000/svg" xmlns:xlink="http://www.w3.org/1999/xlink">
    <!-- Generator: Sketch 50.2 (55047) - http://www.bohemiancoding.com/sketch -->
    <title>facebook</title>
    <desc>Created with Sketch.</desc>
    <defs>
        <path d="M17.9958129,0.00707426943 L13.5105332,0 C8.4714753,0 5.21501472,3.28422958 5.21501472,8.36744588 L5.21501472,12.2253987 L0.705266601,12.2253987 C0.315570821,12.2253987 0,12.5359591 0,12.9190308 L0,18.5087648 C0,18.8918365 0.315930651,19.2020432 0.705266601,19.2020432 L5.21501472,19.2020432 L5.21501472,33.3067216 C5.21501472,33.6897933 5.53058554,34 5.92028132,34 L11.8042198,34 C12.1939156,34 12.5094864,33.6894396 12.5094864,33.3067216 L12.5094864,19.2020432 L17.7824338,19.2020432 C18.1721295,19.2020432 18.4877004,18.8918365 18.4877004,18.5087648 L18.4898593,12.9190308 C18.4898593,12.7350998 18.4153746,12.5589505 18.283317,12.428784 C18.1512594,12.2986174 17.9713445,12.2253987 17.7842329,12.2253987 L12.5094864,12.2253987 L12.5094864,8.95496395 C12.5094864,7.38306129 12.8905463,6.58508369 14.9736016,6.58508369 L17.9950932,6.58402255 C18.3844292,6.58402255 18.7,6.27346213 18.7,5.89074415 L18.7,0.700352673 C18.7,0.317988411 18.384789,0.00778169637 17.9958129,0.00707426943 Z" id="path-1"></path>
    </defs>
    <g id="facebook" stroke="none" stroke-width="1" fill="none" fill-rule="evenodd">
        <g id="color/@azul/dark-1">
            <mask id="mask-2" fill="white">
                <use xlink:href="#path-1"></use>
            </mask>
            <use id="Mask" fill="#FFFFFF" fill-rule="nonzero" xlink:href="#path-1"></use>
            <g id="color/@azul/dark" mask="url(#mask-2)">
                <g transform="translate(-16.000000, -10.000000)">
                    <rect id="Background" fill="none" x="0" y="0" width="47" height="47"></rect>
                    <rect id="Rectangle-Copy-2" fill="#0088BA" fill-rule="evenodd" x="0" y="0" width="47" height="47"></rect>
                </g>
            </g>
        </g>
    </g>
</svg>