<?xml version="1.0" encoding="UTF-8" standalone="no"?>
<svg width="20px" height="19px" viewBox="0 0 20 19" version="1.1" xmlns="http://www.w3.org/2000/svg" xmlns:xlink="http://www.w3.org/1999/xlink">
    <!-- Generator: Sketch 50.2 (55047) - http://www.bohemiancoding.com/sketch -->
    <title>instagram 1</title>
    <desc>Created with Sketch.</desc>
    <defs>
        <path d="M14.5960547,0 L5.40394531,0 C2.42421875,0 0,2.30300781 0,5.13374805 L0,13.866252 C0,16.6969922 2.42421875,19 5.40394531,19 L14.5960547,19 C17.5757813,19 20,16.6969922 20,13.866252 L20,5.13374805 C20,2.30300781 17.5757813,0 14.5960547,0 Z M18.3842188,13.866252 C18.3842188,15.8506016 16.6848828,17.4650078 14.5960547,17.4650078 L5.40394531,17.4650078 C3.31515625,17.4650078 1.61578125,15.8506387 1.61578125,13.866252 L1.61578125,5.13374805 C1.61578125,3.14939844 3.31511719,1.53499219 5.40394531,1.53499219 L14.5960547,1.53499219 C16.6848438,1.53499219 18.3842188,3.14936133 18.3842188,5.13374805 L18.3842188,13.866252 Z" id="path-1"></path>
    </defs>
    <g id="landing_page_v2" stroke="none" stroke-width="1" fill="none" fill-rule="evenodd">
        <g id="01landing_page_venmaca_home_v2" transform="translate(-1514.000000, -1093.000000)">
            <g id="footer_bar" transform="translate(0.000000, 1073.000000)">
                <g id="redes_sociales" transform="translate(1482.000000, 20.000000)">
                    <g id="instagram" transform="translate(32.000000, 0.000000)">
                        <g id="Communication/ic_call-1">
                            <g>
                                <g id="instagram">
                                    <g id="Shape-+-Shape-+-color/@azul/dark-1-Mask">
                                        <mask id="mask-2" fill="white">
                                            <use xlink:href="#path-1"></use>
                                        </mask>
                                        <use id="Mask" fill="#FFFFFF" fill-rule="nonzero" xlink:href="#path-1"></use>
                                        <path d="M14.4760156,8.83726367 C14.3338281,7.92633984 13.8963672,7.10073047 13.2109375,6.44957227 C12.5255078,5.79845117 11.6564453,5.38282617 10.6976172,5.24778516 C10.2610547,5.18629492 9.8184375,5.18629492 9.38191406,5.24778516 C8.19691406,5.41474023 7.15132813,6.01004883 6.43769531,6.92408984 C5.7240625,7.83813086 5.42777344,8.96150586 5.60351563,10.0871816 C5.77925781,11.2128945 6.40589844,12.2062012 7.36804688,12.8841895 C8.14914063,13.4345586 9.0753125,13.7235664 10.0302734,13.7235664 C10.2516406,13.7235664 10.4746094,13.7080547 10.6975781,13.676623 C11.8825781,13.509668 12.9281641,12.9143594 13.6417969,12.0003184 C14.3554688,11.0863145 14.6517578,9.96297656 14.4760156,8.83726367 Z M10.4605859,12.1582187 C9.70257813,12.265168 8.94613281,12.085002 8.330625,11.6513047 C7.71511719,11.2176074 7.31425781,10.5821465 7.201875,9.86203906 C7.08945313,9.14193164 7.27894531,8.42330859 7.73546875,7.83857617 C8.19203125,7.25384375 8.86089844,6.87302734 9.61894531,6.76622656 C9.75855469,6.74655859 9.89914063,6.73672461 10.0397266,6.73672461 C10.1803125,6.73672461 10.3209375,6.74655859 10.4605469,6.76626367 C11.7195703,6.94360937 12.6909375,7.86637109 12.8776563,9.06248047 C13.1096875,10.5490078 12.0254297,11.9377891 10.4605859,12.1582187 Z" id="Shape" fill="#FFFFFF" fill-rule="nonzero"></path>
                                        <path d="M15.6269141,4.15443164 C15.4764453,4.01152344 15.2682031,3.92962305 15.055625,3.92962305 C14.8430469,3.92962305 14.6348047,4.01148633 14.4843359,4.15443164 C14.3339062,4.29737695 14.2476953,4.49487305 14.2476953,4.69715625 C14.2476953,4.89943945 14.3339062,5.09693555 14.4843359,5.23988086 C14.6348047,5.38278906 14.8430469,5.46468945 15.055625,5.46468945 C15.2682031,5.46468945 15.4764453,5.38282617 15.6269141,5.23988086 C15.7773437,5.09693555 15.8635547,4.89910547 15.8635547,4.69715625 C15.8635547,4.49516992 15.7773437,4.29733984 15.6269141,4.15443164 Z" id="Shape" fill="#FFFFFF" fill-rule="nonzero"></path>
                                    </g>
                                </g>
                            </g>
                        </g>
                    </g>
                </g>
            </g>
        </g>
    </g>
</svg>