<?xml version="1.0" encoding="UTF-8" standalone="no"?>
<svg width="34px" height="34px" viewBox="0 0 34 34" version="1.1" xmlns="http://www.w3.org/2000/svg" xmlns:xlink="http://www.w3.org/1999/xlink">
    <!-- Generator: Sketch 50.2 (55047) - http://www.bohemiancoding.com/sketch -->
    <title>instagram/azul</title>
    <desc>Created with Sketch.</desc>
    <defs>
        <path d="M24.813293,0 L9.18670703,0 C4.12117187,0 0,4.12117187 0,9.18670703 L0,24.813293 C0,29.8788281 4.12117187,34 9.18670703,34 L24.813293,34 C29.8788281,34 34,29.8788281 34,24.813293 L34,9.18670703 C34,4.12117187 29.8788281,0 24.813293,0 Z M31.2531719,24.813293 C31.2531719,28.3642344 28.3643008,31.2531719 24.813293,31.2531719 L9.18670703,31.2531719 C5.63576563,31.2531719 2.74682813,28.3643008 2.74682813,24.813293 L2.74682813,9.18670703 C2.74682813,5.63576562 5.63569922,2.74682812 9.18670703,2.74682812 L24.813293,2.74682812 C28.3642344,2.74682812 31.2531719,5.63569922 31.2531719,9.18670703 L31.2531719,24.813293 Z" id="path-1"></path>
    </defs>
    <g id="instagram/azul" stroke="none" stroke-width="1" fill="none" fill-rule="evenodd">
        <g id="instagram">
            <g id="Shape-+-Shape-+-color/@azul/dark-1-Mask">
                <mask id="mask-2" fill="white">
                    <use xlink:href="#path-1"></use>
                </mask>
                <use id="Mask" fill="#0088BA" fill-rule="nonzero" xlink:href="#path-1"></use>
                <path d="M24.6092266,15.8140508 C24.3675078,14.1839766 23.6238242,12.7065703 22.4585938,11.5413398 C21.2933633,10.3761758 19.815957,9.63242578 18.1859492,9.39077344 C17.443793,9.28073828 16.6913438,9.28073828 15.9492539,9.39077344 C13.9347539,9.68953516 12.1572578,10.7548242 10.944082,12.3904766 C9.73090625,14.0261289 9.22721484,16.0363789 9.52597656,18.0507461 C9.82473828,20.0651797 10.8900273,21.8426758 12.5256797,23.055918 C13.8535391,24.0407891 15.4280313,24.5579609 17.0514648,24.5579609 C17.4277891,24.5579609 17.8068359,24.5302031 18.1858828,24.473957 C20.2003828,24.1751953 21.9778789,23.1099062 23.1910547,21.4742539 C24.4042969,19.838668 24.9079883,17.8284844 24.6092266,15.8140508 Z M17.7829961,21.7568125 C16.4943828,21.9481953 15.2084258,21.625793 14.1620625,20.8497031 C13.1156992,20.0736133 12.4342383,18.9364727 12.2431875,17.6478594 C12.0520703,16.3592461 12.374207,15.0732891 13.1502969,14.0269258 C13.9264531,12.9805625 15.0635273,12.2991016 16.352207,12.1079844 C16.589543,12.0727891 16.8285391,12.0551914 17.0675352,12.0551914 C17.3065313,12.0551914 17.5455938,12.0727891 17.7829297,12.1080508 C19.9232695,12.4254062 21.5745938,14.0766641 21.8920156,16.2170703 C22.2864688,18.8771719 20.4432305,21.3623594 17.7829961,21.7568125 Z" id="Shape" fill="#0088BA" fill-rule="nonzero"></path>
                <path d="M26.5657539,7.43424609 C26.309957,7.17851563 25.9559453,7.03195703 25.5945625,7.03195703 C25.2331797,7.03195703 24.879168,7.17844922 24.6233711,7.43424609 C24.3676406,7.69004297 24.221082,8.04345703 24.221082,8.4054375 C24.221082,8.76741797 24.3676406,9.12083203 24.6233711,9.37662891 C24.879168,9.63235938 25.2331797,9.77891797 25.5945625,9.77891797 C25.9559453,9.77891797 26.309957,9.63242578 26.5657539,9.37662891 C26.8214844,9.12083203 26.968043,8.76682031 26.968043,8.4054375 C26.968043,8.04398828 26.8214844,7.68997656 26.5657539,7.43424609 Z" id="Shape" fill="#0088BA" fill-rule="nonzero"></path>
            </g>
        </g>
    </g>
</svg>