<?xml version="1.0" encoding="UTF-8" standalone="no"?>
<svg width="38px" height="30px" viewBox="0 0 38 30" version="1.1" xmlns="http://www.w3.org/2000/svg" xmlns:xlink="http://www.w3.org/1999/xlink">
    <!-- Generator: Sketch 50.2 (55047) - http://www.bohemiancoding.com/sketch -->
    <title>twitter</title>
    <desc>Created with Sketch.</desc>
    <defs>
        <path d="M36.8674096,3.54319277 C35.5104819,4.14445783 34.0545181,4.55222892 32.524759,4.73427711 C34.086747,3.79891566 35.2824096,2.3153012 35.8490964,0.552891566 C34.3839157,1.41909639 32.7666265,2.04807229 31.0433735,2.38903614 C29.6634337,0.916927711 27.7006024,0 25.523494,0 C21.346747,0 17.9601807,3.38656627 17.9601807,7.5610241 C17.9601807,8.15307229 18.026988,8.7313253 18.1560241,9.28427711 C11.8713253,8.96861446 6.29849398,5.95759036 2.5686747,1.38222892 C1.91668675,2.49728916 1.54578313,3.79656627 1.54578313,5.18349398 C1.54578313,7.80753012 2.88198795,10.1228313 4.90933735,11.4774096 C3.66987952,11.4359639 2.50415663,11.095 1.48361446,10.528253 L1.48361446,10.6227108 C1.48361446,14.2857229 4.09150602,17.3428313 7.54945783,18.0386145 C6.91590361,18.2090964 6.24783133,18.3035542 5.55668675,18.3035542 C5.06831325,18.3035542 4.5960241,18.2551807 4.13295181,18.163012 C5.09590361,21.1694578 7.88813253,23.3557229 11.1963855,23.4156627 C8.60921687,25.443012 5.34704819,26.6478916 1.80385542,26.6478916 C1.19337349,26.6478916 0.592048193,26.6110241 0,26.5442169 C3.34740964,28.6936747 7.32144578,29.9469277 11.5926506,29.9469277 C25.5051807,29.9469277 33.11,18.4233735 33.11,8.42957831 L33.0846386,7.45048193 C34.5705422,6.39066265 35.8560241,5.05909639 36.8674096,3.54319277 Z" id="path-1"></path>
    </defs>
    <g id="twitter" stroke="none" stroke-width="1" fill="none" fill-rule="evenodd">
        <g id="color/@azul/dark-1">
            <mask id="mask-2" fill="white">
                <use xlink:href="#path-1"></use>
            </mask>
            <use id="Mask" fill="#0088BA" fill-rule="nonzero" xlink:href="#path-1"></use>
            <g id="color/@azul/dark" mask="url(#mask-2)">
                <g transform="translate(-10.000000, -22.000000)">
                    <rect id="Background" fill="none" x="0" y="0" width="69" height="69"></rect>
                    <rect id="Rectangle-Copy-2" fill="#0088BA" fill-rule="evenodd" x="0" y="0" width="69" height="69"></rect>
                </g>
            </g>
        </g>
    </g>
</svg>