<?xml version="1.0" encoding="UTF-8" standalone="no"?>
<svg width="25px" height="19px" viewBox="0 0 25 19" version="1.1" xmlns="http://www.w3.org/2000/svg" xmlns:xlink="http://www.w3.org/1999/xlink">
    <!-- Generator: Sketch 50.2 (55047) - http://www.bohemiancoding.com/sketch -->
    <title>twitter 1</title>
    <desc>Created with Sketch.</desc>
    <defs>
        <path d="M24.2548748,2.24402209 C23.3621592,2.62482329 22.4042882,2.88307831 21.3978678,2.9983755 C22.4254914,2.40597992 23.2121116,1.46635743 23.5849318,0.350164659 C22.6209971,0.898761044 21.5569911,1.29711245 20.423272,1.51305622 C19.5154169,0.580720884 18.2240805,0 16.7917724,0 C14.0439125,0 11.8159084,2.1448253 11.8159084,4.78864859 C11.8159084,5.16361245 11.8598605,5.52983936 11.9447527,5.88004217 C7.81008244,5.68012249 4.14374604,3.77314056 1.68991756,0.875411647 C1.26097812,1.58161647 1.01696259,2.40449197 1.01696259,3.28287952 C1.01696259,4.94476908 1.89604471,6.41112651 3.2298272,7.2690261 C2.41439442,7.24277711 1.64747146,7.02683333 0.976062143,6.66789357 L0.976062143,6.72771687 C0.976062143,9.0476245 2.69178028,10.9837932 4.96674857,11.4244558 C4.54993659,11.5324277 4.11041535,11.592251 3.65571497,11.592251 C3.33441661,11.592251 3.02370006,11.5616145 2.71904724,11.503241 C3.35256817,13.4073233 5.18956088,14.7919578 7.36604312,14.8299197 C5.66395847,16.1139076 3.51779486,16.876998 1.18674699,16.876998 C0.785114141,16.876998 0.38950539,16.8536486 0,16.8113373 C2.20224318,18.1726606 4.81674065,18.9663876 7.62674382,18.9663876 C16.7797242,18.9663876 21.7828947,11.6681365 21.7828947,5.33873293 L21.7662096,4.71863855 C22.7437777,4.04741968 23.5894895,3.20409438 24.2548748,2.24402209 Z" id="path-1"></path>
    </defs>
    <g id="landing_page_v2" stroke="none" stroke-width="1" fill="none" fill-rule="evenodd">
        <g id="01landing_page_venmaca_home_v2" transform="translate(-1548.000000, -1093.000000)">
            <g id="footer_bar" transform="translate(0.000000, 1073.000000)">
                <g id="redes_sociales" transform="translate(1482.000000, 20.000000)">
                    <g id="twitter" transform="translate(66.000000, 0.000000)">
                        <g id="twitter-2">
                            <g>
                                <g id="color/@azul/dark-1">
                                    <mask id="mask-2" fill="white">
                                        <use xlink:href="#path-1"></use>
                                    </mask>
                                    <use id="Mask" fill="#0088BA" fill-rule="nonzero" xlink:href="#path-1"></use>
                                    <g id="color/@blanco" mask="url(#mask-2)" fill="#FFFFFF">
                                        <g transform="translate(-6.578947, -13.933333)">
                                            <rect x="0" y="0" width="45" height="44"></rect>
                                        </g>
                                    </g>
                                </g>
                            </g>
                        </g>
                    </g>
                </g>
            </g>
        </g>
    </g>
</svg>