<?xml version="1.0" encoding="UTF-8" standalone="no"?>
<svg width="227px" height="79px" viewBox="0 0 227 79" version="1.1" xmlns="http://www.w3.org/2000/svg" xmlns:xlink="http://www.w3.org/1999/xlink">
    <!-- Generator: Sketch 50.2 (55047) - http://www.bohemiancoding.com/sketch -->
    <title>fund_venmaca_logo_blanco</title>
    <desc>Created with Sketch.</desc>
    <defs>
        <polygon id="path-1" points="0.0482 0.99 50.2882 0.99 50.2882 61.1913 0.0482 61.1913"></polygon>
        <polygon id="path-3" points="0 78.0103 226.772 78.0103 226.772 1.0003 0 1.0003"></polygon>
    </defs>
    <g id="fund_venmaca_logo_blanco" stroke="none" stroke-width="1" fill="none" fill-rule="evenodd">
        <g>
            <path d="M36.034,78.0103 C29.804,78.0103 23.574,76.3873 18.017,73.1423 C6.904,66.6513 0,54.5553 0,41.5733 L0,41.4683 C0,32.2533 3.409,23.4553 9.6,16.6943 C10.744,15.4453 11.986,14.2673 13.291,13.1923 C14.34,12.3283 15.882,12.4903 16.736,13.5513 C17.589,14.6123 17.431,16.1723 16.382,17.0363 C15.254,17.9643 14.182,18.9813 13.193,20.0603 C7.844,25.9033 4.898,33.5053 4.898,41.4683 L4.898,41.5733 C4.898,52.7903 10.863,63.2433 20.466,68.8513 C30.069,74.4593 41.999,74.4593 51.602,68.8513 C61.205,63.2433 67.17,52.7903 67.17,41.5733 L67.17,41.4683 C67.17,39.8413 67.044,38.2013 66.796,36.5953 C66.587,35.2433 67.501,33.9763 68.837,33.7643 C70.172,33.5513 71.426,34.4773 71.635,35.8293 C71.922,37.6883 72.068,39.5863 72.068,41.4683 L72.068,41.5733 C72.068,54.5553 65.165,66.6513 54.051,73.1423 C48.494,76.3873 42.264,78.0103 36.034,78.0103" id="Fill-1" fill="#FEFEFE"></path>
            <g id="Group-5" transform="translate(21.000000, 0.010300)">
                <mask id="mask-2" fill="white">
                    <use xlink:href="#path-1"></use>
                </mask>
                <g id="Clip-4"></g>
                <path d="M50.2882,11.3383 C50.2882,11.8123 50.1522,12.2513 49.9172,12.6263 L28.4472,54.6833 C28.2652,55.0373 28.0692,55.3763 27.8562,55.7053 C26.2712,58.9543 22.9582,61.1913 19.1312,61.1913 C18.9312,61.1913 18.7282,61.1843 18.5322,61.1703 C14.2922,60.9113 10.7872,57.9033 9.7342,53.8863 L9.4992,52.6803 L0.0942,3.8883 L0.0902,3.8703 C0.0622,3.7183 0.0482,3.5803 0.0482,3.4213 C0.0482,2.0763 1.1262,0.9893 2.4522,0.9893 C3.6102,0.9893 4.5752,1.8183 4.8032,2.9223 C4.8062,2.9363 4.8092,2.9543 4.8132,2.9683 L11.9972,35.2143 C12.0042,35.2433 12.0112,35.2713 12.0182,35.2993 C12.0182,35.3063 12.0182,35.3133 12.0252,35.3203 C12.9842,39.7483 16.8842,43.0643 21.5512,43.0643 C24.8782,43.0643 27.8212,41.3763 29.5802,38.7993 C30.0812,38.1763 30.5212,37.5003 30.8962,36.7713 L45.8032,10.2203 L45.7922,10.2163 C46.1912,9.4483 46.9852,8.9283 47.9022,8.9283 C49.2172,8.9283 50.2882,10.0073 50.2882,11.3383" id="Fill-3" fill="#FEFEFE" mask="url(#mask-2)"></path>
            </g>
            <path d="M52.2985,26.2655 C52.2985,31.0055 48.5005,34.8475 43.8145,34.8475 C39.1295,34.8475 35.3315,31.0055 35.3315,26.2655 C35.3315,21.5255 39.1295,17.6835 43.8145,17.6835 C48.5005,17.6835 52.2985,21.5255 52.2985,26.2655" id="Fill-6" fill="#FEFEFE"></path>
            <polygon id="Fill-8" fill="#FEFEFE" points="82.2203 38.9078 86.7433 38.9078 93.2143 56.4158 99.7473 38.9078 104.0823 38.9078 95.2873 61.1508 90.9213 61.1508"></polygon>
            <path d="M116.3009,51.332 C116.2589,50.083 115.8499,49.087 115.0759,48.345 C114.3009,47.604 113.2749,47.233 111.9979,47.233 C110.8039,47.233 109.8039,47.598 108.9979,48.329 C108.1919,49.06 107.6939,50.061 107.5059,51.332 L116.3009,51.332 Z M118.0129,46.343 C119.3629,47.89 120.0389,50.061 120.0389,52.857 C120.0389,53.409 120.0279,53.821 120.0069,54.097 L107.5999,54.097 C107.8719,55.304 108.4329,56.252 109.2799,56.94 C110.1289,57.629 111.1699,57.973 112.4059,57.973 C113.2639,57.973 114.0859,57.809 114.8719,57.481 C115.6569,57.152 116.3419,56.681 116.9289,56.067 L119.1279,58.386 C118.2899,59.319 117.2689,60.039 116.0649,60.547 C114.8609,61.056 113.5259,61.31 112.0599,61.31 C110.3429,61.31 108.8299,60.95 107.5209,60.229 C106.2129,59.509 105.2019,58.497 104.4899,57.195 C103.7779,55.892 103.4219,54.394 103.4219,52.699 C103.4219,51.004 103.7839,49.5 104.5059,48.186 C105.2279,46.873 106.2389,45.851 107.5369,45.12 C108.8349,44.389 110.3119,44.024 111.9659,44.024 C114.6459,44.024 116.6619,44.797 118.0129,46.343 Z" id="Fill-10" fill="#FEFEFE"></path>
            <path d="M138.2257,45.7556 C139.3357,46.9316 139.8907,48.5256 139.8907,50.5376 L139.8907,61.1506 L135.7757,61.1506 L135.7757,51.7456 C135.7757,50.5596 135.4407,49.6216 134.7707,48.9326 C134.0997,48.2446 133.1887,47.9006 132.0377,47.9006 C130.6757,47.9216 129.6037,48.3876 128.8177,49.2986 C128.0327,50.2096 127.6397,51.3746 127.6397,52.7936 L127.6397,61.1506 L123.5567,61.1506 L123.5567,44.1506 L127.6397,44.1506 L127.6397,47.3286 C128.7917,45.1466 130.8017,44.0346 133.6707,43.9916 C135.5977,43.9916 137.1157,44.5796 138.2257,45.7556" id="Fill-12" fill="#FEFEFE"></path>
            <path d="M170.9865,45.7556 C172.0755,46.9316 172.6205,48.5256 172.6205,50.5376 L172.6205,61.1506 L168.5055,61.1506 L168.5055,51.7456 C168.5055,50.5376 168.1755,49.5896 167.5155,48.9016 C166.8565,48.2126 165.9605,47.8686 164.8305,47.8686 C163.5315,47.9116 162.5005,48.3876 161.7355,49.2986 C160.9715,50.2096 160.5895,51.3636 160.5895,52.7616 L160.5895,61.1506 L156.4745,61.1506 L156.4745,51.7456 C156.4745,50.5376 156.1495,49.5896 155.5015,48.9016 C154.8515,48.2126 153.9625,47.8686 152.8315,47.8686 C151.5115,47.9116 150.4695,48.3876 149.7055,49.2986 C148.9415,50.2096 148.5595,51.3636 148.5595,52.7616 L148.5595,61.1506 L144.4755,61.1506 L144.4755,44.1506 L148.5595,44.1506 L148.5595,47.2966 C149.6695,45.1356 151.6375,44.0346 154.4645,43.9916 C155.9295,43.9916 157.1605,44.3466 158.1555,45.0566 C159.1495,45.7666 159.8455,46.7676 160.2445,48.0596 C161.3125,45.3896 163.3955,44.0346 166.4945,43.9916 C168.3995,43.9916 169.8975,44.5796 170.9865,45.7556" id="Fill-14" fill="#FEFEFE"></path>
            <path d="M185.6551,57.3218 C186.4921,56.7608 186.9631,56.0668 187.0681,55.2408 L187.0681,53.7148 L182.8281,53.7148 C181.7391,53.7148 180.9381,53.8798 180.4251,54.2078 C179.9121,54.5368 179.6551,55.0708 179.6551,55.8128 C179.6551,56.5328 179.9221,57.1048 180.4571,57.5288 C180.9911,57.9528 181.7181,58.1638 182.6401,58.1638 C183.8121,58.1638 184.8171,57.8838 185.6551,57.3218 Z M187.1001,61.1508 L187.1001,59.0858 C186.5131,59.8268 185.7601,60.3888 184.8381,60.7698 C183.9171,61.1508 182.8601,61.3418 181.6661,61.3418 C180.4931,61.3418 179.4621,61.1138 178.5721,60.6578 C177.6821,60.2028 176.9961,59.5728 176.5141,58.7678 C176.0331,57.9628 175.7921,57.0628 175.7921,56.0668 C175.7921,54.4778 176.3471,53.2338 177.4571,52.3328 C178.5671,51.4328 180.1371,50.9718 182.1681,50.9508 L187.0681,50.9508 L187.0681,50.5058 C187.0681,49.5108 186.7441,48.7378 186.0951,48.1858 C185.4451,47.6358 184.5031,47.3598 183.2681,47.3598 C181.6761,47.3598 180.0111,47.8898 178.2731,48.9488 L176.7971,46.0888 C178.1161,45.3478 179.3151,44.8128 180.3941,44.4848 C181.4721,44.1558 182.7341,43.9918 184.1791,43.9918 C186.3571,43.9918 188.0471,44.5218 189.2521,45.5808 C190.4551,46.6398 191.0681,48.1228 191.0891,50.0288 L191.1201,61.1508 L187.1001,61.1508 Z" id="Fill-16" fill="#FEFEFE"></path>
            <path d="M202.8683,47.6462 C201.5063,47.6462 200.4023,48.1122 199.5543,49.0442 C198.7063,49.9762 198.2823,51.1842 198.2823,52.6662 C198.2823,54.1922 198.7063,55.4212 199.5543,56.3522 C200.4023,57.2852 201.5063,57.7512 202.8683,57.7512 C204.8783,57.7512 206.3863,57.0832 207.3913,55.7492 L209.9353,57.8782 C209.1813,58.9792 208.1873,59.8272 206.9513,60.4202 C205.7163,61.0132 204.2813,61.3102 202.6483,61.3102 C200.9943,61.3102 199.5233,60.9502 198.2353,60.2292 C196.9473,59.5092 195.9473,58.4972 195.2353,57.1952 C194.5233,55.8922 194.1673,54.3932 194.1673,52.6982 C194.1673,50.9822 194.5283,49.4682 195.2513,48.1542 C195.9733,46.8412 196.9783,45.8242 198.2663,45.1042 C199.5543,44.3842 201.0353,44.0232 202.7113,44.0232 C204.2393,44.0232 205.6063,44.2942 206.8103,44.8342 C208.0143,45.3742 208.9933,46.1422 209.7473,47.1372 L207.2653,49.5212 C206.1353,48.2712 204.6693,47.6462 202.8683,47.6462" id="Fill-18" fill="#FEFEFE"></path>
            <path d="M221.3062,57.3218 C222.1432,56.7608 222.6142,56.0668 222.7192,55.2408 L222.7192,53.7148 L218.4792,53.7148 C217.3902,53.7148 216.5892,53.8798 216.0762,54.2078 C215.5632,54.5368 215.3062,55.0708 215.3062,55.8128 C215.3062,56.5328 215.5732,57.1048 216.1082,57.5288 C216.6422,57.9528 217.3692,58.1638 218.2912,58.1638 C219.4632,58.1638 220.4682,57.8838 221.3062,57.3218 Z M222.7512,61.1508 L222.7512,59.0858 C222.1642,59.8268 221.4112,60.3888 220.4902,60.7698 C219.5682,61.1508 218.5112,61.3418 217.3172,61.3418 C216.1442,61.3418 215.1132,61.1138 214.2232,60.6578 C213.3332,60.2028 212.6472,59.5728 212.1652,58.7678 C211.6842,57.9628 211.4432,57.0628 211.4432,56.0668 C211.4432,54.4778 211.9982,53.2338 213.1082,52.3328 C214.2182,51.4328 215.7882,50.9718 217.8192,50.9508 L222.7192,50.9508 L222.7192,50.5058 C222.7192,49.5108 222.3952,48.7378 221.7462,48.1858 C221.0962,47.6358 220.1542,47.3598 218.9192,47.3598 C217.3272,47.3598 215.6622,47.8898 213.9242,48.9488 L212.4482,46.0888 C213.7672,45.3478 214.9662,44.8128 216.0452,44.4848 C217.1232,44.1558 218.3852,43.9918 219.8302,43.9918 C222.0082,43.9918 223.6982,44.5218 224.9032,45.5808 C226.1062,46.6398 226.7192,48.1228 226.7402,50.0288 L226.7712,61.1508 L222.7512,61.1508 Z" id="Fill-20" fill="#FEFEFE"></path>
            <polygon id="Fill-22" fill="#FEFEFE" points="80.9897 20.6019 90.0207 20.6019 90.0027 22.8149 83.4957 22.8149 83.4957 26.3899 89.4227 26.3899 89.4227 28.6029 83.4957 28.6029 83.4957 33.8429 80.9897 33.8429"></polygon>
            <path d="M101.0339,23.7231 L101.0339,33.8421 L98.5839,33.8421 L98.5839,31.9701 C97.9119,33.2811 96.7519,33.9371 95.1069,33.9371 C93.9849,33.9371 93.0999,33.5911 92.4519,32.8971 C91.8029,32.2031 91.4789,31.2581 91.4789,30.0591 L91.4789,23.7231 L93.9289,23.7231 L93.9289,29.3411 C93.9289,30.0471 94.1189,30.6021 94.4989,31.0051 C94.8789,31.4091 95.4059,31.6101 96.0789,31.6101 C96.8519,31.5981 97.4629,31.3211 97.9119,30.7781 C98.3599,30.2361 98.5839,29.5491 98.5839,28.7171 L98.5839,23.7231 L101.0339,23.7231 Z" id="Fill-24" fill="#FEFEFE"></path>
            <path d="M112.7946,24.6781 C113.4556,25.3781 113.7856,26.3271 113.7856,27.5251 L113.7856,33.8421 L111.3366,33.8421 L111.3366,28.2431 C111.3366,27.5371 111.1366,26.9801 110.7376,26.5701 C110.3386,26.1601 109.7966,25.9551 109.1106,25.9551 C108.3006,25.9681 107.6626,26.2451 107.1946,26.7871 C106.7276,27.3301 106.4936,28.0231 106.4936,28.8681 L106.4936,33.8421 L104.0626,33.8421 L104.0626,23.7231 L106.4936,23.7231 L106.4936,25.6151 C107.1786,24.3161 108.3756,23.6541 110.0836,23.6281 C111.2296,23.6281 112.1336,23.9781 112.7946,24.6781" id="Fill-26" fill="#FEFEFE"></path>
            <path d="M122.9382,31.0336 C123.4682,30.4596 123.7332,29.7196 123.7332,28.8116 C123.7332,27.9036 123.4682,27.1626 122.9382,26.5886 C122.4082,26.0146 121.7262,25.7276 120.8912,25.7276 C120.0552,25.7276 119.3762,26.0146 118.8522,26.5886 C118.3292,27.1626 118.0612,27.9036 118.0482,28.8116 C118.0612,29.7196 118.3292,30.4596 118.8522,31.0336 C119.3762,31.6076 120.0552,31.8946 120.8912,31.8946 C121.7262,31.8946 122.4082,31.6076 122.9382,31.0336 Z M126.1632,19.8076 L126.1632,33.8426 L123.7332,33.8426 L123.7332,32.2156 C123.3712,32.7836 122.9072,33.2156 122.3402,33.5116 C121.7722,33.8076 121.1152,33.9556 120.3672,33.9556 C119.4192,33.9556 118.5872,33.7386 117.8712,33.3036 C117.1542,32.8686 116.5962,32.2566 116.1972,31.4686 C115.7982,30.6806 115.5992,29.7756 115.5992,28.7546 C115.5992,27.7456 115.7952,26.8536 116.1882,26.0776 C116.5812,25.3026 117.1352,24.7006 117.8522,24.2716 C118.5692,23.8426 119.3882,23.6286 120.3112,23.6286 C121.0712,23.6286 121.7382,23.7796 122.3122,24.0826 C122.8852,24.3846 123.3592,24.8196 123.7332,25.3876 L123.7332,19.8076 L126.1632,19.8076 Z" id="Fill-28" fill="#FEFEFE"></path>
            <path d="M134.3345,31.5633 C134.8335,31.2293 135.1135,30.8163 135.1765,30.3243 L135.1765,29.4163 L132.6515,29.4163 C132.0035,29.4163 131.5265,29.5143 131.2215,29.7093 C130.9155,29.9053 130.7635,30.2233 130.7635,30.6643 C130.7635,31.0933 130.9225,31.4343 131.2405,31.6863 C131.5575,31.9383 131.9905,32.0643 132.5395,32.0643 C133.2375,32.0643 133.8355,31.8973 134.3345,31.5633 Z M135.1945,33.8423 L135.1945,32.6133 C134.8455,33.0543 134.3965,33.3883 133.8485,33.6153 C133.2995,33.8423 132.6705,33.9563 131.9605,33.9563 C131.2615,33.9563 130.6475,33.8203 130.1185,33.5493 C129.5885,33.2783 129.1805,32.9033 128.8935,32.4233 C128.6065,31.9443 128.4635,31.4093 128.4635,30.8163 C128.4635,29.8703 128.7935,29.1293 129.4545,28.5933 C130.1145,28.0583 131.0495,27.7833 132.2595,27.7703 L135.1765,27.7703 L135.1765,27.5063 C135.1765,26.9133 134.9825,26.4533 134.5965,26.1253 C134.2095,25.7973 133.6485,25.6333 132.9135,25.6333 C131.9665,25.6333 130.9755,25.9493 129.9405,26.5793 L129.0615,24.8763 C129.8475,24.4353 130.5605,24.1173 131.2025,23.9213 C131.8445,23.7263 132.5955,23.6283 133.4555,23.6283 C134.7525,23.6283 135.7585,23.9433 136.4755,24.5743 C137.1925,25.2053 137.5565,26.0873 137.5695,27.2223 L137.5875,33.8423 L135.1945,33.8423 Z" id="Fill-30" fill="#FEFEFE"></path>
            <path d="M144.5809,25.8038 C143.7699,25.8038 143.1129,26.0808 142.6079,26.6358 C142.1039,27.1908 141.8509,27.9098 141.8509,28.7918 C141.8509,29.6998 142.1039,30.4318 142.6079,30.9868 C143.1129,31.5418 143.7699,31.8188 144.5809,31.8188 C145.7779,31.8188 146.6749,31.4218 147.2729,30.6268 L148.7879,31.8948 C148.3389,32.5498 147.7469,33.0548 147.0119,33.4078 C146.2759,33.7608 145.4219,33.9368 144.4499,33.9368 C143.4649,33.9368 142.5899,33.7228 141.8229,33.2938 C141.0559,32.8658 140.4609,32.2628 140.0369,31.4878 C139.6129,30.7118 139.4019,29.8198 139.4019,28.8108 C139.4019,27.7898 139.6169,26.8878 140.0469,26.1068 C140.4769,25.3248 141.0749,24.7198 141.8409,24.2908 C142.6079,23.8618 143.4899,23.6478 144.4869,23.6478 C145.3969,23.6478 146.2109,23.8078 146.9269,24.1298 C147.6439,24.4518 148.2269,24.9088 148.6759,25.5008 L147.1989,26.9198 C146.5249,26.1758 145.6529,25.8038 144.5809,25.8038" id="Fill-32" fill="#FEFEFE"></path>
            <mask id="mask-4" fill="white">
                <use xlink:href="#path-3"></use>
            </mask>
            <g id="Clip-35"></g>
            <path d="M150.863,33.8423 L153.294,33.8423 L153.294,23.7233 L150.863,23.7233 L150.863,33.8423 Z M153.051,19.7883 C153.313,20.0663 153.443,20.4193 153.443,20.8483 C153.443,21.2643 153.313,21.6113 153.051,21.8883 C152.789,22.1653 152.458,22.3043 152.06,22.3043 C151.661,22.3043 151.331,22.1653 151.069,21.8883 C150.807,21.6113 150.676,21.2643 150.676,20.8483 C150.676,20.4193 150.807,20.0663 151.069,19.7883 C151.331,19.5113 151.661,19.3723 152.06,19.3723 C152.458,19.3723 152.789,19.5113 153.051,19.7883 Z" id="Fill-34" fill="#FEFEFE" mask="url(#mask-4)"></path>
            <path d="M161.3898,19.4671 L163.7268,20.4321 L161.3338,22.3801 L159.4458,22.1911 L161.3898,19.4671 Z M158.6228,26.5981 C158.0988,27.1661 157.8368,27.9031 157.8368,28.8111 C157.8368,29.7191 158.0988,30.4571 158.6228,31.0241 C159.1458,31.5911 159.8318,31.8751 160.6798,31.8751 C161.5018,31.8751 162.1748,31.5911 162.6988,31.0241 C163.2228,30.4571 163.4838,29.7191 163.4838,28.8111 C163.4838,27.9031 163.2228,27.1661 162.6988,26.5981 C162.1748,26.0301 161.5018,25.7471 160.6798,25.7471 C159.8318,25.7471 159.1458,26.0301 158.6228,26.5981 Z M163.4188,24.2901 C164.2098,24.7191 164.8268,25.3211 165.2698,26.0971 C165.7118,26.8721 165.9338,27.7641 165.9338,28.7731 C165.9338,29.7941 165.7118,30.6961 165.2698,31.4781 C164.8268,32.2601 164.2098,32.8651 163.4188,33.2941 C162.6268,33.7231 161.7138,33.9371 160.6798,33.9371 C159.6328,33.9371 158.7098,33.7231 157.9118,33.2941 C157.1148,32.8651 156.4938,32.2601 156.0518,31.4781 C155.6088,30.6961 155.3878,29.7941 155.3878,28.7731 C155.3878,27.7641 155.6088,26.8721 156.0518,26.0971 C156.4938,25.3211 157.1148,24.7191 157.9118,24.2901 C158.7098,23.8621 159.6328,23.6471 160.6798,23.6471 C161.7138,23.6471 162.6268,23.8621 163.4188,24.2901 Z" id="Fill-36" fill="#FEFEFE" mask="url(#mask-4)"></path>
            <path d="M176.7781,24.6781 C177.4391,25.3781 177.7691,26.3271 177.7691,27.5251 L177.7691,33.8421 L175.3201,33.8421 L175.3201,28.2431 C175.3201,27.5371 175.1201,26.9801 174.7211,26.5701 C174.3221,26.1601 173.7801,25.9551 173.0941,25.9551 C172.2841,25.9681 171.6461,26.2451 171.1781,26.7871 C170.7111,27.3301 170.4771,28.0231 170.4771,28.8681 L170.4771,33.8421 L168.0461,33.8421 L168.0461,23.7231 L170.4771,23.7231 L170.4771,25.6151 C171.1621,24.3161 172.3591,23.6541 174.0671,23.6281 C175.2131,23.6281 176.1171,23.9781 176.7781,24.6781" id="Fill-37" fill="#FEFEFE" mask="url(#mask-4)"></path>
        </g>
    </g>
</svg>