<?xml version="1.0" encoding="UTF-8" standalone="no"?>
<svg width="50px" height="54px" viewBox="0 0 50 54" version="1.1" xmlns="http://www.w3.org/2000/svg" xmlns:xlink="http://www.w3.org/1999/xlink">
    <!-- Generator: Sketch 50.2 (55047) - http://www.bohemiancoding.com/sketch -->
    <title>fund_venmaca_isotipo</title>
    <desc>Created with Sketch.</desc>
    <defs>
        <polygon id="path-1" points="0.3415 0.528 34.5735 0.528 34.5735 41.5469 0.3415 41.5469"></polygon>
    </defs>
    <g id="fund_venmaca_isotipo" stroke="none" stroke-width="1" fill="none" fill-rule="evenodd">
        <g id="fun_venmaca_logo_color" transform="translate(0.000000, -1.000000)">
            <g id="Group-9" transform="translate(0.000000, 0.472300)">
                <path d="M24.5524,53 C20.3074,53 16.0624,51.894 12.2764,49.683 C4.7044,45.26 0.0004,37.018 0.0004,28.173 L0.0004,28.101 C0.0004,21.823 2.3234,15.828 6.5414,11.221 C7.3204,10.37 8.1664,9.567 9.0554,8.835 C9.7704,8.247 10.8214,8.356 11.4034,9.079 C11.9844,9.803 11.8764,10.866 11.1624,11.454 C10.3934,12.087 9.6624,12.78 8.9894,13.515 C5.3444,17.496 3.3374,22.676 3.3374,28.101 L3.3374,28.173 C3.3374,35.816 7.4014,42.938 13.9444,46.759 C20.4874,50.581 28.6164,50.581 35.1604,46.759 C41.7034,42.938 45.7674,35.816 45.7674,28.173 L45.7674,28.101 C45.7674,26.993 45.6814,25.876 45.5124,24.781 C45.3704,23.86 45.9924,22.996 46.9034,22.852 C47.8124,22.707 48.6674,23.338 48.8094,24.259 C49.0054,25.526 49.1054,26.819 49.1054,28.101 L49.1054,28.173 C49.1054,37.018 44.4014,45.26 36.8284,49.683 C33.0424,51.894 28.7974,53 24.5524,53" id="Fill-1" fill="#00B9E3"></path>
                <g id="Group-5" transform="translate(14.000000, 0.000000)">
                    <mask id="mask-2" fill="white">
                        <use xlink:href="#path-1"></use>
                    </mask>
                    <g id="Clip-4"></g>
                    <path d="M34.5735,7.5789 C34.5735,7.9019 34.4805,8.2009 34.3205,8.4569 L19.6915,37.1129 C19.5675,37.3539 19.4345,37.5849 19.2885,37.8099 C18.2085,40.0229 15.9515,41.5469 13.3435,41.5469 C13.2075,41.5469 13.0695,41.5419 12.9365,41.5329 C10.0475,41.3569 7.6585,39.3069 6.9415,36.5699 L6.7815,35.7479 L0.3725,2.5029 L0.3705,2.4909 C0.3515,2.3869 0.3415,2.2929 0.3415,2.1839 C0.3415,1.2679 1.0755,0.5279 1.9795,0.5279 C2.7685,0.5279 3.4265,1.0919 3.5815,1.8439 C3.5835,1.8539 3.5855,1.8659 3.5885,1.8759 L8.4835,23.8469 C8.4885,23.8669 8.4925,23.8859 8.4975,23.9049 C8.4975,23.9099 8.4975,23.9149 8.5025,23.9199 C9.1555,26.9359 11.8135,29.1959 14.9935,29.1959 C17.2605,29.1959 19.2645,28.0459 20.4645,26.2899 C20.8045,25.8659 21.1055,25.4049 21.3605,24.9079 L31.5175,6.8169 L31.5105,6.8149 C31.7825,6.2909 32.3235,5.9369 32.9475,5.9369 C33.8445,5.9369 34.5735,6.6719 34.5735,7.5789" id="Fill-3" fill="#00B9E3" mask="url(#mask-2)"></path>
                </g>
                <path d="M35.6345,17.7428 C35.6345,20.9728 33.0465,23.5908 29.8535,23.5908 C26.6615,23.5908 24.0735,20.9728 24.0735,17.7428 C24.0735,14.5128 26.6615,11.8948 29.8535,11.8948 C33.0465,11.8948 35.6345,14.5128 35.6345,17.7428" id="Fill-6" fill="#00B9E3"></path>
            </g>
        </g>
    </g>
</svg>